<svg version="1.1" xmlns="http://www.w3.org/2000/svg" xmlns:xlink="http://www.w3.org/1999/xlink" x="0px" y="0px"
	 viewBox="0 0 234 234" style="enable-background:new 0 0 234 234;" xml:space="preserve">
<style type="text/css">
	.st0{fill:#1E81EF;}
	.st1{fill:#18284C;}
</style>
<g id="back">
	<path class="st0" d="M178.11,103.52h-48v-48c0-6.05-4.95-11-11-11s-11,4.95-11,11v48h-48c-6.05,0-11,4.95-11,11
		c0,6.05,4.95,11,11,11h48v48c0,6.05,4.95,11,11,11s11-4.95,11-11v-48h48c6.05,0,11-4.95,11-11
		C189.11,108.47,184.16,103.52,178.11,103.52z"/>
</g>
<g id="front">
	<path class="st1" d="M173.11,107.52h-48v-48c0-6.05-4.95-11-11-11s-11,4.95-11,11v48h-48c-6.05,0-11,4.95-11,11
		c0,6.05,4.95,11,11,11h48v48c0,6.05,4.95,11,11,11s11-4.95,11-11v-48h48c6.05,0,11-4.95,11-11
		C184.11,112.47,179.16,107.52,173.11,107.52z"/>
</g>
</svg>
