<?xml version="1.0" encoding="utf-8"?>
<!-- Generator: Adobe Illustrator 25.2.1, SVG Export Plug-In . SVG Version: 6.00 Build 0)  -->
<svg version="1.1" xmlns="http://www.w3.org/2000/svg" xmlns:xlink="http://www.w3.org/1999/xlink" x="0px" y="0px"
	 viewBox="0 0 234 234" style="enable-background:new 0 0 234 234;" xml:space="preserve">
<style type="text/css">
	.st0{fill:#005FCA;}
	.st1{fill:#18284C;}
	.st2{fill:#FFFFFF;}
	.st3{fill:none;stroke:#FFFFFF;stroke-width:9;stroke-linecap:round;stroke-linejoin:round;stroke-miterlimit:10;}
	.st4{fill:none;stroke:#FFFFFF;stroke-width:9;stroke-miterlimit:10;}
</style>
<g id="circle">
	<circle class="st0" cx="117" cy="117" r="93.5"/>
	<circle class="st1" cx="347" cy="117" r="93.5"/>
</g>
<g id="details">
	<circle class="st2" cx="101.5" cy="136.5" r="4.5"/>
	<path class="st3" d="M88.48,131.86c-7.41-5.38-12.23-14.12-12.23-23.98c0-16.36,13.26-29.62,29.62-29.62s29.62,13.26,29.62,29.62
		c0,13.18-8.6,24.35-20.5,28.19"/>
	<path class="st4" d="M159.5,154.69l-1.53,1.67c-3.31,3.61-8.92,3.85-12.53,0.54l-16.41-15.05c-3.61-3.31-3.85-8.92-0.54-12.53
		l1.53-1.67c3.31-3.61,8.92-3.85,12.53-0.54l16.41,15.05C162.57,145.47,162.81,151.08,159.5,154.69z"/>
	<circle class="st2" cx="331.5" cy="136.5" r="4.5"/>
	<path class="st3" d="M318.48,131.86c-7.41-5.38-12.23-14.12-12.23-23.98c0-16.36,13.26-29.62,29.62-29.62s29.62,13.26,29.62,29.62
		c0,13.18-8.6,24.35-20.5,28.19"/>
	<path class="st4" d="M389.5,154.69l-1.53,1.67c-3.31,3.61-8.92,3.85-12.53,0.54l-16.41-15.05c-3.61-3.31-3.85-8.92-0.54-12.53
		l1.53-1.67c3.31-3.61,8.92-3.85,12.53-0.54l16.41,15.05C392.57,145.47,392.81,151.08,389.5,154.69z"/>
</g>
</svg>
